<svg width="100%" viewBox="0 0 680 820" xmlns="http://www.w3.org/2000/svg" font-family="ui-sans-serif,system-ui,sans-serif">
  <defs>
    <marker id="arrow" viewBox="0 0 10 10" refX="8" refY="5" markerWidth="6" markerHeight="6" orient="auto-start-reverse">
      <path d="M2 1L8 5L2 9" fill="none" stroke="#888" stroke-width="1.5" stroke-linecap="round" stroke-linejoin="round"/>
    </marker>
    <marker id="arrow-purple" viewBox="0 0 10 10" refX="8" refY="5" markerWidth="6" markerHeight="6" orient="auto-start-reverse">
      <path d="M2 1L8 5L2 9" fill="none" stroke="#7F77DD" stroke-width="1.5" stroke-linecap="round" stroke-linejoin="round"/>
    </marker>
  </defs>

  <!-- INTERNET LAYER -->
  <rect x="220" y="20" width="240" height="44" rx="8" fill="#E6F1FB" stroke="#185FA5" stroke-width="0.5"/>
  <text x="340" y="37" text-anchor="middle" font-size="13" font-weight="600" fill="#0C447C">AWS Route 53</text>
  <text x="340" y="54" text-anchor="middle" font-size="11" fill="#185FA5">*.ewtst.com → Contabo public IP</text>

  <line x1="340" y1="64" x2="340" y2="98" stroke="#888" stroke-width="1.2" marker-end="url(#arrow)"/>

  <!-- TRAEFIK -->
  <rect x="210" y="100" width="260" height="44" rx="8" fill="#EEEDFE" stroke="#534AB7" stroke-width="0.5"/>
  <text x="340" y="117" text-anchor="middle" font-size="13" font-weight="600" fill="#3C3489">Traefik ingress</text>
  <text x="340" y="134" text-anchor="middle" font-size="11" fill="#534AB7">TLS termination · port 80/443</text>

  <!-- CLUSTER CONTAINER -->
  <rect x="30" y="168" width="620" height="484" rx="16" fill="#F1EFE8" stroke="#888780" stroke-width="0.8"/>
  <text x="56" y="190" font-size="13" font-weight="600" fill="#444441">Kubernetes cluster</text>
  <text x="56" y="206" font-size="11" fill="#5F5E5A">kubeadm · Ubuntu 24.04 · Cilium CNI</text>

  <line x1="340" y1="144" x2="340" y2="168" stroke="#888" stroke-width="1.2" marker-end="url(#arrow)"/>

  <!-- MASTER NODE -->
  <rect x="50" y="220" width="270" height="56" rx="8" fill="#E1F5EE" stroke="#0F6E56" stroke-width="0.5"/>
  <text x="185" y="243" text-anchor="middle" font-size="13" font-weight="600" fill="#085041">Master node (VPS #1)</text>
  <text x="185" y="260" text-anchor="middle" font-size="11" fill="#0F6E56">4 vCPU · 8 GB · Contabo</text>

  <!-- WORKER NODE -->
  <rect x="360" y="220" width="270" height="56" rx="8" fill="#E1F5EE" stroke="#0F6E56" stroke-width="0.5"/>
  <text x="495" y="243" text-anchor="middle" font-size="13" font-weight="600" fill="#085041">Worker node (VPS #2)</text>
  <text x="495" y="260" text-anchor="middle" font-size="11" fill="#0F6E56">4 vCPU · 8 GB · Contabo</text>

  <line x1="320" y1="248" x2="360" y2="248" stroke="#888" stroke-width="1" stroke-dasharray="4 3" marker-end="url(#arrow)"/>

  <!-- ROW 1: system namespaces -->
  <rect x="50" y="300" width="130" height="44" rx="6" fill="#F1EFE8" stroke="#888780" stroke-width="0.5"/>
  <text x="115" y="318" text-anchor="middle" font-size="12" font-weight="600" fill="#444441">kube-system</text>
  <text x="115" y="334" text-anchor="middle" font-size="10" fill="#5F5E5A">etcd · apiserver · Cilium</text>

  <rect x="196" y="300" width="130" height="44" rx="6" fill="#F1EFE8" stroke="#888780" stroke-width="0.5"/>
  <text x="261" y="318" text-anchor="middle" font-size="12" font-weight="600" fill="#444441">cert-manager</text>
  <text x="261" y="334" text-anchor="middle" font-size="10" fill="#5F5E5A">TLS · Let's Encrypt</text>

  <rect x="342" y="300" width="130" height="44" rx="6" fill="#F1EFE8" stroke="#888780" stroke-width="0.5"/>
  <text x="407" y="318" text-anchor="middle" font-size="12" font-weight="600" fill="#444441">local-path-storage</text>
  <text x="407" y="334" text-anchor="middle" font-size="10" fill="#5F5E5A">PVC provisioner</text>

  <rect x="488" y="300" width="130" height="44" rx="6" fill="#F1EFE8" stroke="#888780" stroke-width="0.5"/>
  <text x="553" y="318" text-anchor="middle" font-size="12" font-weight="600" fill="#444441">fleet-default</text>
  <text x="553" y="334" text-anchor="middle" font-size="10" fill="#5F5E5A">Fleet workloads</text>

  <!-- ROW 2: Rancher namespaces -->
  <rect x="50" y="366" width="130" height="44" rx="6" fill="#FAECE7" stroke="#993C1D" stroke-width="0.5"/>
  <text x="115" y="384" text-anchor="middle" font-size="12" font-weight="600" fill="#712B13">cattle-system</text>
  <text x="115" y="400" text-anchor="middle" font-size="10" fill="#993C1D">Rancher UI · webhook</text>

  <rect x="196" y="366" width="130" height="44" rx="6" fill="#FAECE7" stroke="#993C1D" stroke-width="0.5"/>
  <text x="261" y="384" text-anchor="middle" font-size="12" font-weight="600" fill="#712B13">cattle-fleet-system</text>
  <text x="261" y="400" text-anchor="middle" font-size="10" fill="#993C1D">Fleet · gitjob · helmops</text>

  <rect x="342" y="366" width="130" height="44" rx="6" fill="#FAECE7" stroke="#993C1D" stroke-width="0.5"/>
  <text x="407" y="384" text-anchor="middle" font-size="12" font-weight="600" fill="#712B13">cattle-capi-system</text>
  <text x="407" y="400" text-anchor="middle" font-size="10" fill="#993C1D">Cluster API</text>

  <rect x="488" y="366" width="130" height="44" rx="6" fill="#FAECE7" stroke="#993C1D" stroke-width="0.5"/>
  <text x="553" y="384" text-anchor="middle" font-size="12" font-weight="600" fill="#712B13">cattle-turtles</text>
  <text x="553" y="400" text-anchor="middle" font-size="10" fill="#993C1D">Rancher Turtles</text>

  <!-- ROW 3: workload namespaces -->
  <rect x="50" y="432" width="130" height="44" rx="6" fill="#E1F5EE" stroke="#0F6E56" stroke-width="0.5"/>
  <text x="115" y="450" text-anchor="middle" font-size="12" font-weight="600" fill="#085041">harbor</text>
  <text x="115" y="466" text-anchor="middle" font-size="10" fill="#0F6E56">Image registry</text>

  <rect x="196" y="432" width="130" height="44" rx="6" fill="#E1F5EE" stroke="#0F6E56" stroke-width="0.5"/>
  <text x="261" y="450" text-anchor="middle" font-size="12" font-weight="600" fill="#085041">drone</text>
  <text x="261" y="466" text-anchor="middle" font-size="10" fill="#0F6E56">CI server · k8s runner</text>

  <rect x="342" y="432" width="130" height="44" rx="6" fill="#E1F5EE" stroke="#0F6E56" stroke-width="0.5"/>
  <text x="407" y="450" text-anchor="middle" font-size="12" font-weight="600" fill="#085041">nextcloud</text>
  <text x="407" y="466" text-anchor="middle" font-size="10" fill="#0F6E56">Files · db · Redis</text>

  <rect x="488" y="432" width="130" height="44" rx="6" fill="#E1F5EE" stroke="#0F6E56" stroke-width="0.5"/>
  <text x="553" y="450" text-anchor="middle" font-size="12" font-weight="600" fill="#085041">automation</text>
  <text x="553" y="466" text-anchor="middle" font-size="10" fill="#0F6E56">n8n · GitHub runner</text>

  <!-- CILIUM BAND -->
  <rect x="50" y="496" width="568" height="36" rx="6" fill="#F1EFE8" stroke="#888780" stroke-width="0.5"/>
  <text x="334" y="518" text-anchor="middle" font-size="11" fill="#5F5E5A">Cilium CNI — eBPF pod networking across both nodes</text>

  <!-- STORAGE BAND -->
  <rect x="50" y="544" width="568" height="36" rx="6" fill="#F1EFE8" stroke="#888780" stroke-width="0.5"/>
  <text x="334" y="566" text-anchor="middle" font-size="11" fill="#5F5E5A">Local Path Provisioner — hostPath PVCs (harbor-db · nextcloud · db-0)</text>

  <!-- CI/CD PIPELINE -->
  <text x="340" y="624" text-anchor="middle" font-size="13" font-weight="600" fill="#444441">CI/CD pipeline</text>

  <rect x="44" y="638" width="130" height="44" rx="8" fill="#E6F1FB" stroke="#185FA5" stroke-width="0.5"/>
  <text x="109" y="656" text-anchor="middle" font-size="12" font-weight="600" fill="#0C447C">GitHub</text>
  <text x="109" y="672" text-anchor="middle" font-size="10" fill="#185FA5">git push → Actions</text>

  <line x1="174" y1="660" x2="208" y2="660" stroke="#888" stroke-width="1.2" marker-end="url(#arrow)"/>

  <rect x="210" y="638" width="130" height="44" rx="8" fill="#E6F1FB" stroke="#185FA5" stroke-width="0.5"/>
  <text x="275" y="656" text-anchor="middle" font-size="12" font-weight="600" fill="#0C447C">GitHub Actions</text>
  <text x="275" y="672" text-anchor="middle" font-size="10" fill="#185FA5">Build Docker image</text>

  <line x1="340" y1="660" x2="374" y2="660" stroke="#888" stroke-width="1.2" marker-end="url(#arrow)"/>

  <rect x="376" y="638" width="130" height="44" rx="8" fill="#E1F5EE" stroke="#0F6E56" stroke-width="0.5"/>
  <text x="441" y="656" text-anchor="middle" font-size="12" font-weight="600" fill="#085041">Harbor registry</text>
  <text x="441" y="672" text-anchor="middle" font-size="10" fill="#0F6E56">Push image artifact</text>

  <line x1="506" y1="660" x2="540" y2="660" stroke="#888" stroke-width="1.2" marker-end="url(#arrow)"/>

  <rect x="542" y="638" width="110" height="44" rx="8" fill="#EEEDFE" stroke="#534AB7" stroke-width="0.5"/>
  <text x="597" y="656" text-anchor="middle" font-size="12" font-weight="600" fill="#3C3489">Drone CI</text>
  <text x="597" y="672" text-anchor="middle" font-size="10" fill="#534AB7">Deploy to cluster</text>

  <path d="M597 682 Q597 750 340 750 Q200 750 185 652" fill="none" stroke="#7F77DD" stroke-width="1" stroke-dasharray="4 3" marker-end="url(#arrow-purple)"/>
  <text x="390" y="762" text-anchor="middle" font-size="10" fill="#534AB7">deploys to cluster</text>

  <!-- TAILSCALE BAR -->
  <rect x="44" y="786" width="590" height="20" rx="6" fill="#FAEEDA" stroke="#854F0B" stroke-width="0.5"/>
  <text x="339" y="800" text-anchor="middle" font-size="10" fill="#633806">Tailscale VPN — private access only · kubectl · SSH · no public API exposure</text>
</svg>
